HIERARCHY
ROOT Hips
{
  OFFSET 0.000000 95.000000 0.000000
  CHANNELS 6 Xposition Yposition Zposition Zrotation Xrotation Yrotation
  JOINT Spine
  {
    OFFSET 0.000000 10.000000 0.000000
    CHANNELS 3 Zrotation Xrotation Yrotation
    JOINT Spine1
    {
      OFFSET 0.000000 12.000000 0.000000
      CHANNELS 3 Zrotation Xrotation Yrotation
      JOINT Spine2
      {
        OFFSET 0.000000 12.000000 0.000000
        CHANNELS 3 Zrotation Xrotation Yrotation
        JOINT Neck
        {
          OFFSET 0.000000 10.000000 0.000000
          CHANNELS 3 Zrotation Xrotation Yrotation
          JOINT Head
          {
            OFFSET 0.000000 8.000000 0.000000
            CHANNELS 3 Zrotation Xrotation Yrotation
            End Site
            {
              OFFSET 0.000000 10.000000 0.000000
            }
          }
        }
        JOINT LeftShoulder
        {
          OFFSET 6.000000 8.000000 0.000000
          CHANNELS 3 Zrotation Xrotation Yrotation
          JOINT LeftArm
          {
            OFFSET 12.000000 0.000000 0.000000
            CHANNELS 3 Zrotation Xrotation Yrotation
            JOINT LeftForeArm
            {
              OFFSET 24.000000 0.000000 0.000000
              CHANNELS 3 Zrotation Xrotation Yrotation
              JOINT LeftHand
              {
                OFFSET 22.000000 0.000000 0.000000
                CHANNELS 3 Zrotation Xrotation Yrotation
                JOINT LeftHandThumb1
                {
                  OFFSET 1.800000 -1.400000 0.500000
                  CHANNELS 3 Zrotation Xrotation Yrotation
                  JOINT LeftHandThumb2
                  {
                    OFFSET 2.400000 0.000000 0.000000
                    CHANNELS 3 Zrotation Xrotation Yrotation
                    JOINT LeftHandThumb3
                    {
                      OFFSET 1.900000 0.000000 0.000000
                      CHANNELS 3 Zrotation Xrotation Yrotation
                      End Site
                      {
                        OFFSET 1.600000 0.000000 0.000000
                      }
                    }
                  }
                }
                JOINT LeftHandIndex1
                {
                  OFFSET 6.600000 1.200000 0.300000
                  CHANNELS 3 Zrotation Xrotation Yrotation
                  JOINT LeftHandIndex2
                  {
                    OFFSET 2.000000 0.000000 0.000000
                    CHANNELS 3 Zrotation Xrotation Yrotation
                    JOINT LeftHandIndex3
                    {
                      OFFSET 1.200000 0.000000 0.000000
                      CHANNELS 3 Zrotation Xrotation Yrotation
                      End Site
                      {
                        OFFSET 1.000000 0.000000 0.000000
                      }
                    }
                  }
                }
                JOINT LeftHandMiddle1
                {
                  OFFSET 7.200000 0.000000 0.300000
                  CHANNELS 3 Zrotation Xrotation Yrotation
                  JOINT LeftHandMiddle2
                  {
                    OFFSET 3.000000 0.000000 0.000000
                    CHANNELS 3 Zrotation Xrotation Yrotation
                    JOINT LeftHandMiddle3
                    {
                      OFFSET 2.000000 0.000000 0.000000
                      CHANNELS 3 Zrotation Xrotation Yrotation
                      End Site
                      {
                        OFFSET 1.600000 0.000000 0.000000
                      }
                    }
                  }
                }
                JOINT LeftHandRing1
                {
                  OFFSET 7.100000 -1.000000 0.400000
                  CHANNELS 3 Zrotation Xrotation Yrotation
                  JOINT LeftHandRing2
                  {
                    OFFSET 2.600000 0.000000 0.000000
                    CHANNELS 3 Zrotation Xrotation Yrotation
                    JOINT LeftHandRing3
                    {
                      OFFSET 1.600000 0.000000 0.000000
                      CHANNELS 3 Zrotation Xrotation Yrotation
                      End Site
                      {
                        OFFSET 1.300000 0.000000 0.000000
                      }
                    }
                  }
                }
                JOINT LeftHandPinky1
                {
                  OFFSET 6.500000 -2.000000 0.500000
                  CHANNELS 3 Zrotation Xrotation Yrotation
                  JOINT LeftHandPinky2
                  {
                    OFFSET 1.900000 0.000000 0.000000
                    CHANNELS 3 Zrotation Xrotation Yrotation
                    JOINT LeftHandPinky3
                    {
                      OFFSET 1.400000 0.000000 0.000000
                      CHANNELS 3 Zrotation Xrotation Yrotation
                      End Site
                      {
                        OFFSET 1.300000 0.000000 0.000000
                      }
                    }
                  }
                }
              }
            }
          }
        }
        JOINT RightShoulder
        {
          OFFSET -6.000000 8.000000 0.000000
          CHANNELS 3 Zrotation Xrotation Yrotation
          JOINT RightArm
          {
            OFFSET -12.000000 0.000000 0.000000
            CHANNELS 3 Zrotation Xrotation Yrotation
            JOINT RightForeArm
            {
              OFFSET -24.000000 0.000000 0.000000
              CHANNELS 3 Zrotation Xrotation Yrotation
              JOINT RightHand
              {
                OFFSET -22.000000 0.000000 0.000000
                CHANNELS 3 Zrotation Xrotation Yrotation
                JOINT RightHandThumb1
                {
                  OFFSET -1.800000 -1.400000 0.500000
                  CHANNELS 3 Zrotation Xrotation Yrotation
                  JOINT RightHandThumb2
                  {
                    OFFSET -2.400000 0.000000 0.000000
                    CHANNELS 3 Zrotation Xrotation Yrotation
                    JOINT RightHandThumb3
                    {
                      OFFSET -1.900000 0.000000 0.000000
                      CHANNELS 3 Zrotation Xrotation Yrotation
                      End Site
                      {
                        OFFSET -1.600000 0.000000 0.000000
                      }
                    }
                  }
                }
                JOINT RightHandIndex1
                {
                  OFFSET -6.600000 1.200000 0.300000
                  CHANNELS 3 Zrotation Xrotation Yrotation
                  JOINT RightHandIndex2
                  {
                    OFFSET -2.000000 0.000000 0.000000
                    CHANNELS 3 Zrotation Xrotation Yrotation
                    JOINT RightHandIndex3
                    {
                      OFFSET -1.200000 0.000000 0.000000
                      CHANNELS 3 Zrotation Xrotation Yrotation
                      End Site
                      {
                        OFFSET -1.000000 0.000000 0.000000
                      }
                    }
                  }
                }
                JOINT RightHandMiddle1
                {
                  OFFSET -7.200000 0.000000 0.300000
                  CHANNELS 3 Zrotation Xrotation Yrotation
                  JOINT RightHandMiddle2
                  {
                    OFFSET -3.000000 0.000000 0.000000
                    CHANNELS 3 Zrotation Xrotation Yrotation
                    JOINT RightHandMiddle3
                    {
                      OFFSET -2.000000 0.000000 0.000000
                      CHANNELS 3 Zrotation Xrotation Yrotation
                      End Site
                      {
                        OFFSET -1.600000 0.000000 0.000000
                      }
                    }
                  }
                }
                JOINT RightHandRing1
                {
                  OFFSET -7.100000 -1.000000 0.400000
                  CHANNELS 3 Zrotation Xrotation Yrotation
                  JOINT RightHandRing2
                  {
                    OFFSET -2.600000 0.000000 0.000000
                    CHANNELS 3 Zrotation Xrotation Yrotation
                    JOINT RightHandRing3
                    {
                      OFFSET -1.600000 0.000000 0.000000
                      CHANNELS 3 Zrotation Xrotation Yrotation
                      End Site
                      {
                        OFFSET -1.300000 0.000000 0.000000
                      }
                    }
                  }
                }
                JOINT RightHandPinky1
                {
                  OFFSET -6.500000 -2.000000 0.500000
                  CHANNELS 3 Zrotation Xrotation Yrotation
                  JOINT RightHandPinky2
                  {
                    OFFSET -1.900000 0.000000 0.000000
                    CHANNELS 3 Zrotation Xrotation Yrotation
                    JOINT RightHandPinky3
                    {
                      OFFSET -1.400000 0.000000 0.000000
                      CHANNELS 3 Zrotation Xrotation Yrotation
                      End Site
                      {
                        OFFSET -1.300000 0.000000 0.000000
                      }
                    }
                  }
                }
              }
            }
          }
        }
      }
    }
  }
  JOINT LeftUpLeg
  {
    OFFSET 10.000000 -5.000000 0.000000
    CHANNELS 3 Zrotation Xrotation Yrotation
    JOINT LeftLeg
    {
      OFFSET 0.000000 -42.000000 0.000000
      CHANNELS 3 Zrotation Xrotation Yrotation
      JOINT LeftFoot
      {
        OFFSET 0.000000 -42.000000 4.000000
        CHANNELS 3 Zrotation Xrotation Yrotation
        End Site
        {
          OFFSET 0.000000 0.000000 12.000000
        }
      }
    }
  }
  JOINT RightUpLeg
  {
    OFFSET -10.000000 -5.000000 0.000000
    CHANNELS 3 Zrotation Xrotation Yrotation
    JOINT RightLeg
    {
      OFFSET 0.000000 -42.000000 0.000000
      CHANNELS 3 Zrotation Xrotation Yrotation
      JOINT RightFoot
      {
        OFFSET 0.000000 -42.000000 4.000000
        CHANNELS 3 Zrotation Xrotation Yrotation
        End Site
        {
          OFFSET 0.000000 0.000000 12.000000
        }
      }
    }
  }
}
MOTION
Frames: 9
Frame Time: 0.033333
0.0000 95.0000 0.0000 0.0000 0.0000 0.0000 0.0000 0.0000 0.0000 0.0000 0.0000 0.0000 0.0000 0.0000 0.0000 0.0000 0.0000 0.0000 0.0000 0.0000 0.0000 0.0000 0.0000 0.0000 -77.2592 3.8116 4.7687 -11.5824 8.2275 -11.6387 -159.4398 24.3572 -166.6643 58.6318 -11.8513 4.1924 15.7108 0.0000 0.0000 11.6227 0.0000 0.0000 -3.2811 -0.8325 6.4164 9.9045 0.0000 0.0000 2.5350 0.0000 0.0000 8.7329 -0.6033 3.1163 17.4501 0.0000 0.0000 3.5119 0.0000 0.0000 18.1734 -1.0602 2.6294 19.8574 0.0000 0.0000 1.1281 0.0000 0.0000 25.1782 -1.6439 2.5402 14.8847 0.0000 0.0000 4.8612 0.0000 0.0000 0.0000 0.0000 0.0000 89.2871 -2.3842 2.4140 -4.6659 11.4579 10.4593 -141.2759 33.5505 -32.2596 -74.2271 -15.2133 -13.9524 6.3751 0.0000 0.0000 7.7605 0.0000 0.0000 9.8195 -1.1620 -16.7675 10.9495 0.0000 0.0000 11.0413 0.0000 0.0000 21.2055 2.0985 -6.4039 89.3295 0.0000 0.0000 20.0754 0.0000 0.0000 26.2100 -1.6601 8.3236 93.7793 0.0000 0.0000 13.8616 0.0000 0.0000 26.6153 -5.6180 13.4422 87.3748 0.0000 0.0000 13.9915 0.0000 0.0000 0.0000 0.0000 0.0000 0.0000 0.0000 0.0000 0.0000 0.0000 0.0000 0.0000 0.0000 0.0000 0.0000 0.0000 0.0000 0.0000 0.0000 0.0000
0.0000 95.0000 0.0000 0.0000 0.0000 0.0000 0.0000 0.0000 0.0000 0.0000 0.0000 0.0000 0.0000 0.0000 0.0000 0.0000 0.0000 0.0000 0.0000 0.0000 0.0000 0.0000 0.0000 0.0000 -77.2128 3.9255 4.9152 -11.3612 8.3448 -11.7691 -159.1414 24.2979 -166.5643 58.6318 -11.8513 4.1924 15.7108 0.0000 0.0000 11.6227 0.0000 0.0000 -3.2811 -0.8325 6.4164 9.9045 0.0000 0.0000 2.5350 0.0000 0.0000 8.7329 -0.6033 3.1163 17.4501 0.0000 0.0000 3.5119 0.0000 0.0000 18.1734 -1.0602 2.6294 19.8574 0.0000 0.0000 1.1281 0.0000 0.0000 25.1782 -1.6439 2.5402 14.8847 0.0000 0.0000 4.8612 0.0000 0.0000 0.0000 0.0000 0.0000 89.2765 -2.5327 2.5649 -4.6467 11.2756 10.2812 -141.3446 33.5535 -32.2722 -74.2271 -15.2133 -13.9524 6.3751 0.0000 0.0000 7.7605 0.0000 0.0000 9.8195 -1.1620 -16.7675 10.9495 0.0000 0.0000 11.0413 0.0000 0.0000 21.2055 2.0985 -6.4039 89.3295 0.0000 0.0000 20.0754 0.0000 0.0000 26.2100 -1.6601 8.3236 93.7793 0.0000 0.0000 13.8616 0.0000 0.0000 26.6153 -5.6180 13.4422 87.3748 0.0000 0.0000 13.9915 0.0000 0.0000 0.0000 0.0000 0.0000 0.0000 0.0000 0.0000 0.0000 0.0000 0.0000 0.0000 0.0000 0.0000 0.0000 0.0000 0.0000 0.0000 0.0000 0.0000
0.0000 95.0000 0.0000 0.0000 0.0000 0.0000 0.0000 0.0000 0.0000 0.0000 0.0000 0.0000 0.0000 0.0000 0.0000 0.0000 0.0000 0.0000 0.0000 0.0000 0.0000 0.0000 0.0000 0.0000 -77.5646 3.9103 4.8655 -11.0857 8.3702 -11.7000 -159.2239 24.3160 -166.5902 58.6318 -11.8513 4.1924 15.7108 0.0000 0.0000 11.6227 0.0000 0.0000 -3.2811 -0.8325 6.4164 9.9045 0.0000 0.0000 2.5350 0.0000 0.0000 8.7329 -0.6033 3.1163 17.4501 0.0000 0.0000 3.5119 0.0000 0.0000 18.1734 -1.0602 2.6294 19.8574 0.0000 0.0000 1.1281 0.0000 0.0000 25.1782 -1.6439 2.5402 14.8847 0.0000 0.0000 4.8612 0.0000 0.0000 0.0000 0.0000 0.0000 89.2126 -2.1676 2.1976 -4.2158 11.3125 10.4586 -141.8624 33.6210 -32.3189 -74.2271 -15.2133 -13.9524 6.3751 0.0000 0.0000 7.7605 0.0000 0.0000 9.8195 -1.1620 -16.7675 10.9495 0.0000 0.0000 11.0413 0.0000 0.0000 21.2055 2.0985 -6.4039 89.3295 0.0000 0.0000 20.0754 0.0000 0.0000 26.2100 -1.6601 8.3236 93.7793 0.0000 0.0000 13.8616 0.0000 0.0000 26.6153 -5.6180 13.4422 87.3748 0.0000 0.0000 13.9915 0.0000 0.0000 0.0000 0.0000 0.0000 0.0000 0.0000 0.0000 0.0000 0.0000 0.0000 0.0000 0.0000 0.0000 0.0000 0.0000 0.0000 0.0000 0.0000 0.0000
0.0000 95.0000 0.0000 0.0000 0.0000 0.0000 0.0000 0.0000 0.0000 0.0000 0.0000 0.0000 0.0000 0.0000 0.0000 0.0000 0.0000 0.0000 0.0000 0.0000 0.0000 0.0000 0.0000 0.0000 -77.4635 3.5767 4.4586 -11.3024 8.0259 -11.3140 -159.3866 24.3541 -166.6388 58.6318 -11.8513 4.1924 15.7108 0.0000 0.0000 11.6227 0.0000 0.0000 -3.2811 -0.8325 6.4164 9.9045 0.0000 0.0000 2.5350 0.0000 0.0000 8.7329 -0.6033 3.1163 17.4501 0.0000 0.0000 3.5119 0.0000 0.0000 18.1734 -1.0602 2.6294 19.8574 0.0000 0.0000 1.1281 0.0000 0.0000 25.1782 -1.6439 2.5402 14.8847 0.0000 0.0000 4.8612 0.0000 0.0000 0.0000 0.0000 0.0000 89.2711 -1.7715 1.7942 -4.2313 11.4684 10.6282 -142.0090 33.8109 -32.1500 -74.2271 -15.2133 -13.9524 6.3751 0.0000 0.0000 7.7605 0.0000 0.0000 9.8195 -1.1620 -16.7675 10.9495 0.0000 0.0000 11.0413 0.0000 0.0000 21.2055 2.0985 -6.4039 89.3295 0.0000 0.0000 20.0754 0.0000 0.0000 26.2100 -1.6601 8.3236 93.7793 0.0000 0.0000 13.8616 0.0000 0.0000 26.6153 -5.6180 13.4422 87.3748 0.0000 0.0000 13.9915 0.0000 0.0000 0.0000 0.0000 0.0000 0.0000 0.0000 0.0000 0.0000 0.0000 0.0000 0.0000 0.0000 0.0000 0.0000 0.0000 0.0000 0.0000 0.0000 0.0000
0.0000 95.0000 0.0000 0.0000 0.0000 0.0000 0.0000 0.0000 0.0000 0.0000 0.0000 0.0000 0.0000 0.0000 0.0000 0.0000 0.0000 0.0000 0.0000 0.0000 0.0000 0.0000 0.0000 0.0000 -77.3120 3.2488 4.0610 -11.7123 7.6742 -10.9491 -159.7017 24.4191 -166.7417 58.6318 -11.8513 4.1924 15.7108 0.0000 0.0000 11.6227 0.0000 0.0000 -3.2811 -0.8325 6.4164 9.9045 0.0000 0.0000 2.5350 0.0000 0.0000 8.7329 -0.6033 3.1163 17.4501 0.0000 0.0000 3.5119 0.0000 0.0000 18.1734 -1.0602 2.6294 19.8574 0.0000 0.0000 1.1281 0.0000 0.0000 25.1782 -1.6439 2.5402 14.8847 0.0000 0.0000 4.8612 0.0000 0.0000 0.0000 0.0000 0.0000 89.3638 -1.4854 1.5020 -4.2477 11.5331 10.6953 -142.2067 33.9655 -32.0314 -74.2271 -15.2133 -13.9524 6.3751 0.0000 0.0000 7.7605 0.0000 0.0000 9.8195 -1.1620 -16.7675 10.9495 0.0000 0.0000 11.0413 0.0000 0.0000 21.2055 2.0985 -6.4039 89.3295 0.0000 0.0000 20.0754 0.0000 0.0000 26.2100 -1.6601 8.3236 93.7793 0.0000 0.0000 13.8616 0.0000 0.0000 26.6153 -5.6180 13.4422 87.3748 0.0000 0.0000 13.9915 0.0000 0.0000 0.0000 0.0000 0.0000 0.0000 0.0000 0.0000 0.0000 0.0000 0.0000 0.0000 0.0000 0.0000 0.0000 0.0000 0.0000 0.0000 0.0000 0.0000
0.0000 95.0000 0.0000 0.0000 0.0000 0.0000 0.0000 0.0000 0.0000 0.0000 0.0000 0.0000 0.0000 0.0000 0.0000 0.0000 0.0000 0.0000 0.0000 0.0000 0.0000 0.0000 0.0000 0.0000 -77.3235 3.6679 4.5837 -11.9908 8.0899 -11.5068 -159.9522 24.4770 -166.8169 58.6318 -11.8513 4.1924 15.7108 0.0000 0.0000 11.6227 0.0000 0.0000 -3.2811 -0.8325 6.4164 9.9045 0.0000 0.0000 2.5350 0.0000 0.0000 8.7329 -0.6033 3.1163 17.4501 0.0000 0.0000 3.5119 0.0000 0.0000 18.1734 -1.0602 2.6294 19.8574 0.0000 0.0000 1.1281 0.0000 0.0000 25.1782 -1.6439 2.5402 14.8847 0.0000 0.0000 4.8612 0.0000 0.0000 0.0000 0.0000 0.0000 89.3344 -1.6608 1.6802 -4.1841 11.4052 10.5780 -142.2391 33.8955 -32.1135 -74.2271 -15.2133 -13.9524 6.3751 0.0000 0.0000 7.7605 0.0000 0.0000 9.8195 -1.1620 -16.7675 10.9495 0.0000 0.0000 11.0413 0.0000 0.0000 21.2055 2.0985 -6.4039 89.3295 0.0000 0.0000 20.0754 0.0000 0.0000 26.2100 -1.6601 8.3236 93.7793 0.0000 0.0000 13.8616 0.0000 0.0000 26.6153 -5.6180 13.4422 87.3748 0.0000 0.0000 13.9915 0.0000 0.0000 0.0000 0.0000 0.0000 0.0000 0.0000 0.0000 0.0000 0.0000 0.0000 0.0000 0.0000 0.0000 0.0000 0.0000 0.0000 0.0000 0.0000 0.0000
0.0000 95.0000 0.0000 0.0000 0.0000 0.0000 0.0000 0.0000 0.0000 0.0000 0.0000 0.0000 0.0000 0.0000 0.0000 0.0000 0.0000 0.0000 0.0000 0.0000 0.0000 0.0000 0.0000 0.0000 -77.4869 4.5309 5.6450 -12.0630 8.9681 -12.5915 -160.0870 24.5119 -166.8536 58.6318 -11.8513 4.1924 15.7108 0.0000 0.0000 11.6227 0.0000 0.0000 -3.2811 -0.8325 6.4164 9.9045 0.0000 0.0000 2.5350 0.0000 0.0000 8.7329 -0.6033 3.1163 17.4501 0.0000 0.0000 3.5119 0.0000 0.0000 18.1734 -1.0602 2.6294 19.8574 0.0000 0.0000 1.1281 0.0000 0.0000 25.1782 -1.6439 2.5402 14.8847 0.0000 0.0000 4.8612 0.0000 0.0000 0.0000 0.0000 0.0000 88.9615 -1.3172 1.3413 -2.7510 10.8497 10.4443 -143.8594 33.9677 -32.4124 -74.2271 -15.2133 -13.9524 6.3751 0.0000 0.0000 7.7605 0.0000 0.0000 9.8195 -1.1620 -16.7675 10.9495 0.0000 0.0000 11.0413 0.0000 0.0000 21.2055 2.0985 -6.4039 89.3295 0.0000 0.0000 20.0754 0.0000 0.0000 26.2100 -1.6601 8.3236 93.7793 0.0000 0.0000 13.8616 0.0000 0.0000 26.6153 -5.6180 13.4422 87.3748 0.0000 0.0000 13.9915 0.0000 0.0000 0.0000 0.0000 0.0000 0.0000 0.0000 0.0000 0.0000 0.0000 0.0000 0.0000 0.0000 0.0000 0.0000 0.0000 0.0000 0.0000 0.0000 0.0000
0.0000 95.0000 0.0000 0.0000 0.0000 0.0000 0.0000 0.0000 0.0000 0.0000 0.0000 0.0000 0.0000 0.0000 0.0000 0.0000 0.0000 0.0000 0.0000 0.0000 0.0000 0.0000 0.0000 0.0000 -77.2781 3.9534 4.9443 -13.2418 -2.3421 5.0936 -163.4922 10.6773 -182.1970 58.6318 -11.8513 4.1924 15.7108 0.0000 0.0000 11.6227 0.0000 0.0000 -3.2811 -0.8325 6.4164 9.9045 0.0000 0.0000 2.5350 0.0000 0.0000 8.7329 -0.6033 3.1163 17.4501 0.0000 0.0000 3.5119 0.0000 0.0000 18.1734 -1.0602 2.6294 19.8574 0.0000 0.0000 1.1281 0.0000 0.0000 25.1782 -1.6439 2.5402 14.8847 0.0000 0.0000 4.8612 0.0000 0.0000 0.0000 0.0000 0.0000 88.4456 -1.3883 1.4265 -0.0589 11.3757 11.6409 -145.3754 32.3180 -34.4103 -74.2271 -15.2133 -13.9524 6.3751 0.0000 0.0000 7.7605 0.0000 0.0000 9.8195 -1.1620 -16.7675 10.9495 0.0000 0.0000 11.0413 0.0000 0.0000 21.2055 2.0985 -6.4039 89.3295 0.0000 0.0000 20.0754 0.0000 0.0000 26.2100 -1.6601 8.3236 93.7793 0.0000 0.0000 13.8616 0.0000 0.0000 26.6153 -5.6180 13.4422 87.3748 0.0000 0.0000 13.9915 0.0000 0.0000 0.0000 0.0000 0.0000 0.0000 0.0000 0.0000 0.0000 0.0000 0.0000 0.0000 0.0000 0.0000 0.0000 0.0000 0.0000 0.0000 0.0000 0.0000
0.0000 95.0000 0.0000 0.0000 0.0000 0.0000 0.0000 0.0000 0.0000 0.0000 0.0000 0.0000 0.0000 0.0000 0.0000 0.0000 0.0000 0.0000 0.0000 0.0000 0.0000 0.0000 0.0000 0.0000 -77.0687 1.7688 2.2209 -16.7871 2.3110 -3.1553 -169.3637 17.5665 -180.5337 84.6691 -17.6074 7.4982 21.5849 0.0000 0.0000 14.7031 0.0000 0.0000 -6.5440 -0.5183 6.5720 12.2336 0.0000 0.0000 5.6856 0.0000 0.0000 5.3946 -0.4322 4.3836 16.1015 0.0000 0.0000 4.8410 0.0000 0.0000 15.1951 -0.8170 4.0739 18.7486 0.0000 0.0000 3.9120 0.0000 0.0000 25.4611 -1.6473 2.8444 12.5496 0.0000 0.0000 6.2152 0.0000 0.0000 0.0000 0.0000 0.0000 87.5167 -2.0254 2.1151 3.9979 14.7955 16.6062 -144.2190 27.4983 -39.0043 -74.2271 -15.2133 -13.9524 6.3751 0.0000 0.0000 7.7605 0.0000 0.0000 9.8195 -1.1620 -16.7675 10.9495 0.0000 0.0000 11.0413 0.0000 0.0000 21.2055 2.0985 -6.4039 89.3295 0.0000 0.0000 20.0754 0.0000 0.0000 26.2100 -1.6601 8.3236 93.7793 0.0000 0.0000 13.8616 0.0000 0.0000 26.6153 -5.6180 13.4422 87.3748 0.0000 0.0000 13.9915 0.0000 0.0000 0.0000 0.0000 0.0000 0.0000 0.0000 0.0000 0.0000 0.0000 0.0000 0.0000 0.0000 0.0000 0.0000 0.0000 0.0000 0.0000 0.0000 0.0000
